<?xml version="1.0" encoding="UTF-8"?>
<svg width="126px" height="33px" viewBox="0 0 126 33" version="1.1" xmlns="http://www.w3.org/2000/svg" xmlns:xlink="http://www.w3.org/1999/xlink">
    <!-- Generator: Sketch 50.2 (55047) - http://www.bohemiancoding.com/sketch -->
    <title>Okalpha Logo</title>
    <desc>Created with Sketch.</desc>
    <defs></defs>
    <g id="Page-1" stroke="none" stroke-width="1" fill="none" fill-rule="evenodd">
        <g id="Homepage-HD-Desktop" transform="translate(-241.000000, -47.000000)" fill="#FFFFFF">
            <g id="Top-Nav" transform="translate(241.000000, 47.000000)">
                <path d="M9.77441406,7.47265625 C11.4788497,7.47265625 13.0808844,7.89875876 14.5805664,8.75097656 C16.0802484,9.60319437 17.2506468,10.7597583 18.0917969,12.2207031 C18.9329469,13.6816479 19.3535156,15.2587806 19.3535156,16.9521484 C19.3535156,18.656584 18.93018,20.2503181 18.0834961,21.7333984 C17.2368122,23.2164788 16.0830151,24.3758096 14.6220703,25.2114258 C13.1611255,26.0470419 11.55079,26.4648438 9.79101562,26.4648438 C7.20115893,26.4648438 4.99040629,25.5434662 3.15869141,23.7006836 C1.32697652,21.8579009 0.411132812,19.6194793 0.411132812,16.9853516 C0.411132812,14.1630718 1.44595319,11.8112073 3.515625,9.9296875 C5.33073824,8.29165848 7.4169804,7.47265625 9.77441406,7.47265625 Z M9.84082031,11.7392578 C8.43521433,11.7392578 7.26481587,12.228999 6.32958984,13.2084961 C5.39436381,14.1879932 4.92675781,15.4413986 4.92675781,16.96875 C4.92675781,18.5403724 5.38883001,19.8131462 6.31298828,20.7871094 C7.23714655,21.7610726 8.407545,22.2480469 9.82421875,22.2480469 C11.2408925,22.2480469 12.4195917,21.7555388 13.3603516,20.7705078 C14.3011115,19.7854768 14.7714844,18.5182369 14.7714844,16.96875 C14.7714844,15.4192631 14.3094122,14.1603239 13.3852539,13.1918945 C12.4610956,12.2234652 11.2796296,11.7392578 9.84082031,11.7392578 Z M21.6572882,0.96484375 L26.1895148,0.96484375 L26.1895148,15.3916016 L32.8633429,7.9375 L38.5410773,7.9375 L30.771546,16.6035156 L39.4873663,26 L33.8594366,26 L26.1895148,17.6826172 L26.1895148,26 L21.6572882,26 L21.6572882,0.96484375 Z M53.2628186,7.9375 L57.7784436,7.9375 L57.7784436,26 L53.2628186,26 L53.2628186,24.0908203 C52.3773975,24.9319704 51.4892228,25.5379213 50.5982678,25.9086914 C49.7073128,26.2794615 48.7416649,26.4648438 47.7012951,26.4648438 C45.365997,26.4648438 43.3461604,25.5600676 41.6417248,23.7504883 C39.9372892,21.9409089 39.0850842,19.6914197 39.0850842,17.0019531 C39.0850842,14.2128767 39.9096202,11.9274178 41.558717,10.1455078 C43.2078138,8.36359786 45.211049,7.47265625 47.5684826,7.47265625 C48.6531235,7.47265625 49.6713424,7.67740681 50.6231701,8.08691406 C51.5749978,8.49642132 52.4548718,9.11067299 53.2628186,9.9296875 L53.2628186,7.9375 Z M48.4981701,11.65625 C47.0925641,11.65625 45.9249326,12.151525 44.9952404,13.1420898 C44.0655483,14.1326547 43.6007092,15.4026615 43.6007092,16.9521484 C43.6007092,18.5127031 44.073849,19.7965444 45.0201428,20.8037109 C45.9664366,21.8108774 47.1313012,22.3144531 48.5147717,22.3144531 C49.9425132,22.3144531 51.1267462,21.8191781 52.0675061,20.8286133 C53.008266,19.8380484 53.4786389,18.5403726 53.4786389,16.9355469 C53.4786389,15.3639244 53.008266,14.0911507 52.0675061,13.1171875 C51.1267462,12.1432243 49.9369794,11.65625 48.4981701,11.65625 Z M60.4474505,0.96484375 L64.9796771,0.96484375 L64.9796771,26 L60.4474505,26 L60.4474505,0.96484375 Z M72.1477074,7.9375 L72.1477074,9.9296875 C72.9667219,9.11067299 73.8521298,8.49642132 74.8039574,8.08691406 C75.7557851,7.67740681 76.7740041,7.47265625 77.8586449,7.47265625 C80.2160786,7.47265625 82.2193138,8.36359786 83.8684106,10.1455078 C85.5175073,11.9274178 86.3420434,14.2128767 86.3420434,17.0019531 C86.3420434,19.6914197 85.4898384,21.9409089 83.7854028,23.7504883 C82.0809671,25.5600676 80.0611306,26.4648438 77.7258324,26.4648438 C76.6854627,26.4648438 75.7170479,26.2794615 74.820559,25.9086914 C73.9240701,25.5379213 73.0331285,24.9319704 72.1477074,24.0908203 L72.1477074,32.6074219 L67.648684,32.6074219 L67.648684,7.9375 L72.1477074,7.9375 Z M76.9123559,11.65625 C75.4846144,11.65625 74.3003814,12.1432243 73.3596215,13.1171875 C72.4188616,14.0911507 71.9484887,15.3639244 71.9484887,16.9355469 C71.9484887,18.5403726 72.4188616,19.8380484 73.3596215,20.8286133 C74.3003814,21.8191781 75.4846144,22.3144531 76.9123559,22.3144531 C78.2958263,22.3144531 79.460691,21.8108774 80.4069848,20.8037109 C81.3532786,19.7965444 81.8264184,18.5127031 81.8264184,16.9521484 C81.8264184,15.4026615 81.3615793,14.1326547 80.4318871,13.1420898 C79.502195,12.151525 78.3290296,11.65625 76.9123559,11.65625 Z M88.6790191,0.96484375 L93.1780425,0.96484375 L93.1780425,9.76367188 C94.0634636,8.99999618 94.9544052,8.427248 95.8508941,8.04541016 C96.7473829,7.66357231 97.6549259,7.47265625 98.5735503,7.47265625 C100.366528,7.47265625 101.877255,8.09244172 103.105777,9.33203125 C104.157214,10.4056043 104.682925,11.982737 104.682925,14.0634766 L104.682925,26 L100.217105,26 L100.217105,18.0810547 C100.217105,15.9892474 100.117497,14.5725949 99.9182769,13.8310547 C99.7190571,13.0895145 99.3787285,12.5361346 98.8972808,12.1708984 C98.4158331,11.8056622 97.8209497,11.6230469 97.1126128,11.6230469 C96.1939884,11.6230469 95.4054221,11.9274058 94.7468902,12.5361328 C94.0883582,13.1448598 93.6318198,13.9749296 93.3772613,15.0263672 C93.2444481,15.5686876 93.1780425,16.8082585 93.1780425,18.7451172 L93.1780425,26 L88.6790191,26 L88.6790191,0.96484375 Z M120.981815,7.9375 L125.49744,7.9375 L125.49744,26 L120.981815,26 L120.981815,24.0908203 C120.096394,24.9319704 119.208219,25.5379213 118.317264,25.9086914 C117.426309,26.2794615 116.460661,26.4648438 115.420292,26.4648438 C113.084993,26.4648438 111.065157,25.5600676 109.360721,23.7504883 C107.656286,21.9409089 106.804081,19.6914197 106.804081,17.0019531 C106.804081,14.2128767 107.628617,11.9274178 109.277714,10.1455078 C110.92681,8.36359786 112.930045,7.47265625 115.287479,7.47265625 C116.37212,7.47265625 117.390339,7.67740681 118.342167,8.08691406 C119.293994,8.49642132 120.173868,9.11067299 120.981815,9.9296875 L120.981815,7.9375 Z M116.217167,11.65625 C114.811561,11.65625 113.643929,12.151525 112.714237,13.1420898 C111.784545,14.1326547 111.319706,15.4026615 111.319706,16.9521484 C111.319706,18.5127031 111.792845,19.7965444 112.739139,20.8037109 C113.685433,21.8108774 114.850298,22.3144531 116.233768,22.3144531 C117.66151,22.3144531 118.845743,21.8191781 119.786503,20.8286133 C120.727262,19.8380484 121.197635,18.5403726 121.197635,16.9355469 C121.197635,15.3639244 120.727262,14.0911507 119.786503,13.1171875 C118.845743,12.1432243 117.655976,11.65625 116.217167,11.65625 Z" id="Okalpha-Logo"></path>
            </g>
        </g>
    </g>
</svg>